<?xml version="1.0" standalone="no"?>
<!DOCTYPE svg PUBLIC "-//W3C//DTD SVG 20010904//EN"
 "http://www.w3.org/TR/2001/REC-SVG-20010904/DTD/svg10.dtd">
<svg version="1.0" xmlns="http://www.w3.org/2000/svg"
 width="980.000000pt" height="982.000000pt" viewBox="0 0 980.000000 982.000000"
 preserveAspectRatio="xMidYMid meet">
<metadata>
Created by potrace 1.16, written by Peter Selinger 2001-2019
</metadata>
<g transform="translate(0.000000,982.000000) scale(0.100000,-0.100000)"
fill="#557C6C" stroke="none">
<path d="M4401 9795 c-1314 -151 -2444 -761 -3296 -1780 -502 -599 -865 -1373
-1024 -2180 -60 -303 -81 -541 -81 -905 0 -385 24 -652 86 -960 231 -1160 846
-2161 1793 -2918 267 -214 633 -437 967 -590 1127 -516 2385 -592 3554 -217
509 164 1063 457 1508 800 282 217 671 610 887 896 563 746 895 1602 987 2544
17 170 16 702 0 865 -75 728 -285 1389 -632 1996 -435 760 -1133 1449 -1878
1854 -271 147 -585 287 -802 358 -359 117 -730 198 -1050 227 -239 23 -859 28
-1019 10z m642 -590 c368 -9 550 -32 854 -105 974 -235 1832 -799 2438 -1600
438 -580 745 -1331 834 -2040 35 -272 32 -869 -5 -1131 -71 -512 -254 -1058
-503 -1504 -386 -691 -998 -1299 -1696 -1687 -484 -268 -1099 -461 -1628 -510
-174 -15 -715 -15 -887 1 -445 42 -979 195 -1425 410 -1299 626 -2204 1874
-2401 3311 -21 160 -31 735 -15 951 46 621 278 1313 629 1879 509 819 1308
1466 2203 1784 433 153 1036 266 1339 249 30 -1 149 -5 263 -8z"/>
<path d="M2430 6043 c-102 -37 -200 -178 -200 -287 0 -54 43 -123 165 -261 48
-55 599 -611 1224 -1236 l1136 -1136 53 -12 c29 -6 80 -11 112 -11 56 0 62 2
122 52 121 101 511 484 1404 1379 897 901 1074 1085 1100 1146 8 18 14 55 14
82 0 145 -121 280 -266 297 -80 10 -120 -7 -224 -97 -52 -45 -562 -548 -1132
-1118 l-1038 -1035 -982 980 c-1224 1220 -1273 1265 -1388 1271 -33 1 -73 -4
-100 -14z"/>
</g>
</svg>
