<svg width="27" height="16" viewBox="0 0 27 16" fill="none" xmlns="http://www.w3.org/2000/svg">
<circle cx="19" cy="8" r="7.75" stroke="#557C6C" stroke-width="0.5"/>
<path d="M1 7.625C0.792893 7.625 0.625 7.79289 0.625 8C0.625 8.20711 0.792893 8.375 1 8.375V7.625ZM20.2652 8.26517C20.4116 8.11872 20.4116 7.88128 20.2652 7.73483L17.8787 5.34835C17.7322 5.2019 17.4948 5.2019 17.3483 5.34835C17.2019 5.4948 17.2019 5.73223 17.3483 5.87868L19.4697 8L17.3483 10.1213C17.2019 10.2678 17.2019 10.5052 17.3483 10.6517C17.4948 10.7981 17.7322 10.7981 17.8787 10.6517L20.2652 8.26517ZM1 8.375H20V7.625H1V8.375Z" fill="#557C6C"/>
</svg>
