<svg width="27" height="16" viewBox="0 0 27 16" fill="none" xmlns="http://www.w3.org/2000/svg">
<circle cx="8" cy="8" r="7.75" transform="matrix(-1 0 0 1 16 0)" stroke="#557C6C" stroke-width="0.5"/>
<path d="M26 7.625C26.2071 7.625 26.375 7.79289 26.375 8C26.375 8.20711 26.2071 8.375 26 8.375V7.625ZM6.73483 8.26517C6.58839 8.11872 6.58839 7.88128 6.73483 7.73483L9.12132 5.34835C9.26777 5.2019 9.5052 5.2019 9.65165 5.34835C9.7981 5.4948 9.7981 5.73223 9.65165 5.87868L7.53033 8L9.65165 10.1213C9.7981 10.2678 9.7981 10.5052 9.65165 10.6517C9.5052 10.7981 9.26777 10.7981 9.12132 10.6517L6.73483 8.26517ZM26 8.375H7V7.625H26V8.375Z" fill="#557C6C"/>
</svg>
